<svg xmlns="http://www.w3.org/2000/svg" viewBox="0 0 34 48.13"><title>Asset 8</title><g id="Layer_2" data-name="Layer 2"><g id="Layer_1-2" data-name="Layer 1"><path d="M17,0A16.91,16.91,0,0,0,2.54,25.82L16,47.46a1.42,1.42,0,0,0,1.21.67h0a1.43,1.43,0,0,0,1.2-.69L31.6,25.59A16.91,16.91,0,0,0,17,0ZM29.17,24.5l-12,19.87L5,24.69a14,14,0,0,1-2.14-7.41,14.19,14.19,0,0,1,28.37,0A14,14,0,0,1,29.17,24.5Z"/><path d="M17,8.82a8.46,8.46,0,1,0,8.5,8.46A8.48,8.48,0,0,0,17,8.82Zm0,14.12a5.66,5.66,0,1,1,5.68-5.66A5.68,5.68,0,0,1,17,22.94Z"/></g></g></svg>