<svg xmlns="http://www.w3.org/2000/svg" viewBox="0 0 45.92 44.04"><title>Asset 6</title><g id="Layer_2" data-name="Layer 2"><g id="Layer_1-2" data-name="Layer 1"><path d="M31.2,2.75a.92.92,0,1,1,1.83,0V6.42a.92.92,0,1,1-1.83,0Zm-18.35,0a.92.92,0,1,1,1.83,0V6.42a.92.92,0,1,1-1.83,0ZM4.59,5.5H11v.92a2.76,2.76,0,0,0,5.51,0V5.5H29.36v.92a2.76,2.76,0,0,0,5.51,0V5.5h6.42A2.75,2.75,0,0,1,44,8.25V11H1.84V8.25A2.75,2.75,0,0,1,4.59,5.5Z"/><path d="M45.88,8.26a4.59,4.59,0,0,0-4.59-4.59H35a.11.11,0,0,1-.1-.1V2.93A2.87,2.87,0,0,0,32.23,0a2.76,2.76,0,0,0-2.87,2.75v.92H16.63a.11.11,0,0,1-.11-.1V2.91A2.87,2.87,0,0,0,14.26,0,2.75,2.75,0,0,0,11,2.75v.92H4.59A4.6,4.6,0,0,0,0,8.26V39.45A4.61,4.61,0,0,0,4.59,44H44.26l1.58-.39a.11.11,0,0,0,.08-.1ZM4.7,42.2a2.86,2.86,0,0,1-2.86-2.86V13a.1.1,0,0,1,.1-.11h42A.11.11,0,0,1,44,13l.21,29.15a.1.1,0,0,1-.11.1Z"/><path d="M12.85,20.18A1.83,1.83,0,0,0,11,18.35H7.34a1.83,1.83,0,0,0-1.83,1.83v3.67a1.83,1.83,0,0,0,1.83,1.84H11a1.84,1.84,0,0,0,1.84-1.84ZM7.34,23.85V20.18H11v3.67Z"/><path d="M22,20.18a1.83,1.83,0,0,0-1.83-1.83H16.52a1.84,1.84,0,0,0-1.84,1.83v3.67a1.84,1.84,0,0,0,1.84,1.84h3.67A1.83,1.83,0,0,0,22,23.85Zm-5.5,3.67V20.18h3.67v3.67Z"/><path d="M11,29.36H7.34a1.83,1.83,0,0,0-1.83,1.83v3.67A1.83,1.83,0,0,0,7.34,36.7H11a1.84,1.84,0,0,0,1.84-1.84V31.19A1.83,1.83,0,0,0,11,29.36Zm-3.67,5.5V31.19H11v3.67Z"/><path d="M20.19,29.36H16.52a1.84,1.84,0,0,0-1.84,1.83v3.67a1.84,1.84,0,0,0,1.84,1.84h3.67A1.83,1.83,0,0,0,22,34.86V31.19a1.83,1.83,0,0,0-1.83-1.83Zm-3.67,5.5V31.19h3.67v3.67Z"/><path d="M32,20.18a1.83,1.83,0,0,0-1.83-1.83H26.45a1.83,1.83,0,0,0-1.84,1.83v3.67a1.84,1.84,0,0,0,1.84,1.84h3.67A1.83,1.83,0,0,0,32,23.85Zm-5.5,3.67V20.18h3.67v3.67Z"/><path d="M41.13,20.18a1.83,1.83,0,0,0-1.84-1.83H35.62a1.83,1.83,0,0,0-1.83,1.83v3.67a1.83,1.83,0,0,0,1.83,1.84h3.67a1.84,1.84,0,0,0,1.84-1.84Zm-5.51,3.67V20.18h3.67v3.67Z"/><path d="M30.12,29.36H26.45a1.83,1.83,0,0,0-1.84,1.83v3.67a1.84,1.84,0,0,0,1.84,1.84h3.67A1.83,1.83,0,0,0,32,34.86V31.19a1.83,1.83,0,0,0-1.83-1.83Zm-3.67,5.5V31.19h3.67v3.67Z"/><path d="M39.29,29.36H35.62a1.83,1.83,0,0,0-1.83,1.83v3.67a1.83,1.83,0,0,0,1.83,1.84h3.67a1.84,1.84,0,0,0,1.84-1.84V31.19a1.83,1.83,0,0,0-1.84-1.83Zm-3.67,5.5V31.19h3.67v3.67Z"/></g></g></svg>