<svg xmlns="http://www.w3.org/2000/svg" viewBox="0 0 43.9 44.88"><defs><style>.cls-1{fill:none;stroke:#3cb755;stroke-miterlimit:10;stroke-width:3px;}</style></defs><title>Asset 17</title><g id="Layer_2" data-name="Layer 2"><g id="Layer_1-2" data-name="Layer 1"><path class="cls-1" d="M35.67,43.38c1.79,0,3.43-1.63,4.89-3.11.28-.3.57-.58.85-.85,1.39-1.34,1.31-4.94-.19-9.17C39.35,25,35.57,19.31,30.56,14.12S20,4.94,14.82,2.9C10.65,1.24,7.06,1,5.67,2.38l-.88.82C3.22,4.63,1.46,6.26,1.5,8.08c0,1.27.92,2.63,2.65,4.08,5.18,4.31,6.67,2.85,9.15.42l.49-.47C15,11,16.86,11.25,19.4,13a43.66,43.66,0,0,1,6.43,5.71C32,25.11,34,29,32,31l-.49.46c-2.52,2.39-4,3.83.09,9.16,1.39,1.78,2.73,2.73,4,2.8Z"/></g></g></svg>