<svg xmlns="http://www.w3.org/2000/svg" viewBox="0 0 66.28 64.07"><title>Asset 14</title><g id="Layer_2" data-name="Layer 2"><g id="Layer_1-2" data-name="Layer 1"><path d="M47.5,26.51A18.78,18.78,0,1,0,66.28,45.29,18.78,18.78,0,0,0,47.5,26.51Zm0,35.35A16.57,16.57,0,1,1,64.07,45.29,16.57,16.57,0,0,1,47.5,61.86Z"/><path d="M48.6,42.18V35.35H46.39v6.83a3.3,3.3,0,0,0-2,2H39.77v2.21h4.62a3.3,3.3,0,1,0,4.21-4.21Zm-1.1,4.21a1.11,1.11,0,1,1,1.1-1.1,1.11,1.11,0,0,1-1.1,1.1Z"/><rect x="33.14" y="44.18" width="2.21" height="2.21"/><rect x="46.39" y="57.44" width="2.21" height="2.21"/><rect x="59.65" y="44.18" width="2.21" height="2.21"/><rect x="46.39" y="30.93" width="2.21" height="2.21"/><path d="M2.21,47.5v-32H53v10h2.21V9.94a5.52,5.52,0,0,0-5.52-5.52H42V3.31a3.31,3.31,0,0,0-6.62,0V4.42H19.88V3.31a3.31,3.31,0,1,0-6.62,0V4.42H5.52A5.52,5.52,0,0,0,0,9.94V47.5A5.52,5.52,0,0,0,5.52,53H27.61V50.81H5.52A3.31,3.31,0,0,1,2.21,47.5ZM37.56,3.31a1.11,1.11,0,0,1,2.21,0V7.73a1.11,1.11,0,1,1-2.21,0Zm-22.1,0a1.11,1.11,0,0,1,2.21,0V7.73a1.11,1.11,0,1,1-2.21,0ZM5.52,6.63h7.74v1.1a3.31,3.31,0,1,0,6.62,0V6.63H35.35v1.1a3.31,3.31,0,1,0,6.62,0V6.63h7.74A3.31,3.31,0,0,1,53,9.94v3.32H2.21V9.94A3.31,3.31,0,0,1,5.52,6.63Z"/><path d="M15.46,24.3a2.2,2.2,0,0,0-2.2-2.21H8.84A2.21,2.21,0,0,0,6.63,24.3v4.42a2.21,2.21,0,0,0,2.21,2.21h4.42a2.2,2.2,0,0,0,2.2-2.21ZM8.84,28.72V24.3h4.42v4.42Z"/><path d="M26.51,24.3a2.21,2.21,0,0,0-2.21-2.21H19.88a2.21,2.21,0,0,0-2.21,2.21v4.42a2.21,2.21,0,0,0,2.21,2.21H24.3a2.21,2.21,0,0,0,2.21-2.21Zm-6.63,4.42V24.3H24.3v4.42Z"/><path d="M37.56,27.61V24.3a2.21,2.21,0,0,0-2.21-2.21H30.93a2.21,2.21,0,0,0-2.21,2.21v4.42a2.21,2.21,0,0,0,2.21,2.21h2.21V28.72H30.93V24.3h4.42v3.31Z"/><path d="M13.26,35.35H8.84a2.21,2.21,0,0,0-2.21,2.21V42a2.21,2.21,0,0,0,2.21,2.21h4.42A2.2,2.2,0,0,0,15.46,42V37.56a2.2,2.2,0,0,0-2.2-2.21ZM8.84,42V37.56h4.42V42Z"/><path d="M24.3,35.35H19.88a2.21,2.21,0,0,0-2.21,2.21V42a2.21,2.21,0,0,0,2.21,2.21H24.3A2.21,2.21,0,0,0,26.51,42V37.56a2.21,2.21,0,0,0-2.21-2.21ZM19.88,42V37.56H24.3V42Z"/><path d="M48.6,25.41V24.3a2.21,2.21,0,0,0-2.21-2.21H42a2.2,2.2,0,0,0-2.2,2.21v1.11H42V24.3h4.42v1.11Z"/></g></g></svg>