<svg xmlns="http://www.w3.org/2000/svg" xmlns:xlink="http://www.w3.org/1999/xlink" viewBox="0 0 84 84.01"><defs><style>.cls-1{fill:none;}.cls-2{clip-path:url(#clip-path);}.cls-3{fill:#f8e8ab;}.cls-4{fill:#393f4b;}.cls-5{fill:#ba3a23;}.cls-6{fill:#464f5e;}.cls-7{fill:#edc100;}.cls-8{fill:#f1d24b;}.cls-9{fill:#e2be50;}.cls-10{fill:#e04c34;}</style><clipPath id="clip-path"><rect class="cls-1" width="84" height="84"/></clipPath></defs><title>Asset 5</title><g id="Layer_2" data-name="Layer 2"><g id="Layer_1-2" data-name="Layer 1"><g class="cls-2"><path class="cls-3" d="M84,59.38c0,8-1.3,14.48-2.9,14.48a224.08,224.08,0,0,0-29.37-2.72l-3.59-1.71A8.68,8.68,0,0,0,46.35,58.7c-.05-4.81,2.2-8.92,1.28-11A233,233,0,0,0,81.1,44.9c1.6,0,2.9,6.48,2.9,14.48Z"/><path class="cls-4" d="M21.72,24.71,1,17.29a1.45,1.45,0,0,1,0-2.72L41.49.09a1.49,1.49,0,0,1,1,0L83,14.57a1.45,1.45,0,0,1,0,2.72l-9.27,3.32-4,1.43-7.47,2.67Z"/></g><path class="cls-3" d="M3.1,73.82l-.2,0a.45.45,0,0,0,.2,0Z"/><path class="cls-3" d="M3.07,44.93l-.17,0a.51.51,0,0,1,.17,0Z"/><path class="cls-3" d="M3.08,44.93a230.92,230.92,0,0,0,31.5,2.76c1,2.12,4.52,6.56,4.52,11.69,0,.35,0,.68,0,1a8.7,8.7,0,0,0-.32,9l-3.58,1.62A234.61,234.61,0,0,0,3.1,73.82Z"/><g class="cls-2"><path class="cls-5" d="M36.19,60.39c0-.33,0-.66,0-1a33.13,33.13,0,0,0-1.63-11.69c2.38.07,4.86.1,7.42.1,1.93,0,3.81,0,5.63,0a31.84,31.84,0,0,1,1.6,11Z"/><path class="cls-5" d="M43.45,73.86,39.6,83.09a1.47,1.47,0,0,1-1.33.92,1.44,1.44,0,0,1-1.35-.88L35.86,80.7l-2.43,1a1.44,1.44,0,0,1-1.58-.28,1.46,1.46,0,0,1-.34-1.57l3.68-8.84.68-1.62Z"/><path class="cls-5" d="M51,69.43l.71,1.71,3.65,8.75a1.43,1.43,0,0,1-1.91,1.85L51,80.7,50,83.13a1.45,1.45,0,0,1-2.68,0l-3.85-9.23Z"/></g><path class="cls-6" d="M21.72,34.76V18.83c0-2.41,9.08-4.35,20.28-4.35s20.28,1.94,20.28,4.35V34.76Z"/><path class="cls-7" d="M72.41,21.72A1.43,1.43,0,0,1,71,20.28v-9.5a1.45,1.45,0,1,1,2.89,0v9.5a1.44,1.44,0,0,1-1.45,1.44Z"/><path class="cls-8" d="M69.52,23.17v4.35A1.45,1.45,0,0,0,71,29h2.89a1.45,1.45,0,0,0,1.45-1.45V23.17a2.9,2.9,0,0,0-5.79,0Z"/><path class="cls-4" d="M62.28,34.76c0,2.4-9.08,4.34-20.28,4.34s-20.28-1.94-20.28-4.34S30.8,30.41,42,30.41s20.28,1.95,20.28,4.35Z"/><path class="cls-9" d="M5.79,59.38C5.79,67,4.61,73.3,3.1,73.82a.45.45,0,0,1-.2,0C1.3,73.86,0,67.37,0,59.38S1.3,44.9,2.9,44.9c0,0,0,0,0,0l.13,0h0c1.51.5,2.71,6.77,2.71,14.45Z"/><path class="cls-10" d="M52.14,65.17a8.69,8.69,0,1,1-8.69-8.69,8.53,8.53,0,0,1,5.78,2.22,8.65,8.65,0,0,1,2.91,6.47Z"/></g></g></svg>