<svg xmlns="http://www.w3.org/2000/svg" viewBox="0 0 56 26.08"><defs><style>.cls-1{fill:#393f4b;}.cls-2{fill:#464f5e;}.cls-3{fill:#edc100;}.cls-4{fill:#f1d24b;}</style></defs><title>Asset 23</title><g id="Layer_2" data-name="Layer 2"><g id="Layer_1-2" data-name="Layer 1"><path class="cls-1" d="M14.48,16.48l-13.84-5a1,1,0,0,1,0-1.81l27-9.66a1,1,0,0,1,.68,0l27,9.66a1,1,0,0,1,0,1.81l-6.18,2.21-2.67,1-5,1.78Z"/><path class="cls-2" d="M14.48,23.18V12.56c0-1.61,6.05-2.9,13.52-2.9S41.52,11,41.52,12.56V23.18Z"/><path class="cls-3" d="M48.28,14.49a1,1,0,0,1-1-1V7.19a1,1,0,1,1,1.93,0v6.33a1,1,0,0,1-1,1Z"/><path class="cls-4" d="M46.35,15.45v2.9a1,1,0,0,0,1,1h1.93a1,1,0,0,0,1-1v-2.9a1.94,1.94,0,0,0-3.87,0Z"/><path class="cls-1" d="M41.52,23.18c0,1.6-6.05,2.9-13.52,2.9s-13.52-1.3-13.52-2.9,6.05-2.9,13.52-2.9,13.52,1.3,13.52,2.9Z"/></g></g></svg>