<svg xmlns="http://www.w3.org/2000/svg" viewBox="0 0 39.62 46"><defs><style>.cls-1{fill:#95e7ee;}.cls-2{fill:#fec652;}.cls-3{fill:#ffe5cb;}</style></defs><title>Asset 4</title><g id="Layer_2" data-name="Layer 2"><g id="Layer_1-2" data-name="Layer 1"><path class="cls-1" d="M29.73,11.27l-25.15.05V41.51a3.6,3.6,0,0,0,3.6,3.59h18a3.6,3.6,0,0,0,3.6-3.59V11.27Z"/><polygon class="cls-2" points="29.74 41.51 29.74 11.29 29.73 11.27 4.58 11.32 4.58 41.51 29.74 41.51"/><path class="cls-1" d="M38.72,19V34.32a3.59,3.59,0,0,1-3.59,3.59H29.74V34.32h5.39V19H29.74v-3.6h5.39A3.6,3.6,0,0,1,38.72,19Z"/><path class="cls-3" d="M31.44,7.34a3.66,3.66,0,0,1-5.39,4v7.58a1.8,1.8,0,1,1-3.59,0V15.3c0-1.24.05-3.53-3.95-3.53a1.19,1.19,0,0,0-.86.36,4.49,4.49,0,0,1-6.38.08,1.58,1.58,0,0,0-1.11-.44.88.88,0,0,0-.8.5,5.37,5.37,0,0,1-4.78,3v7.17a1.86,1.86,0,0,1-1.84,1.81A1.83,1.83,0,0,1,.9,22.49V11.71A7.2,7.2,0,0,1,9.05,4.59,7.16,7.16,0,0,1,20.68,3.32a3.49,3.49,0,0,1,1.87-.53,3.59,3.59,0,0,1,3.39,2.4,3.6,3.6,0,0,1,5.5,2.15Z"/><path d="M22.51,40.55a.9.9,0,1,0,.89.89A.89.89,0,0,0,22.51,40.55Z"/><path d="M9.88,18a.91.91,0,0,0-.9.9V36.05a.9.9,0,1,0,1.8,0V18.89A.9.9,0,0,0,9.88,18Z"/><path d="M17.07,18a.9.9,0,0,0-.9.9V36.05a.9.9,0,1,0,1.8,0V18.89A.9.9,0,0,0,17.07,18Z"/><path d="M8.18,46h18a4.5,4.5,0,0,0,4.5-4.49v-2.7h4.49a4.49,4.49,0,0,0,4.49-4.49V19a4.5,4.5,0,0,0-4.49-4.5H30.64V11.75a4.48,4.48,0,0,0-1.72-8A4.57,4.57,0,0,0,26.35,4a4.52,4.52,0,0,0-3.8-2.08,4.39,4.39,0,0,0-1.69.33A8,8,0,0,0,8.58,3.65,8.1,8.1,0,0,0,0,11.71V22.49a2.72,2.72,0,0,0,2.74,2.69A2.66,2.66,0,0,0,3.68,25v16.5A4.5,4.5,0,0,0,8.18,46Zm18-1.8h-18a2.69,2.69,0,0,1-2.54-1.79H18.91a.9.9,0,1,0,0-1.8H5.48V16.13a6.23,6.23,0,0,0,4.68-3.46.63.63,0,0,1,.48.19,5.41,5.41,0,0,0,7.66-.1.27.27,0,0,1,.21-.09c1.4,0,2.31.3,2.72.89a3,3,0,0,1,.33,1.7v3.63a2.7,2.7,0,0,0,1.8,2.54V36.05a.9.9,0,1,0,1.8,0V21.43A2.7,2.7,0,0,0,27,18.89V12.56a4.63,4.63,0,0,0,1.89,0V40.61H26.1a.9.9,0,1,0,0,1.79h2.59A2.72,2.72,0,0,1,26.14,44.2Zm4.5-24.34h3.59V33.42H30.64Zm4.49-3.6A2.69,2.69,0,0,1,37.82,19V34.32A2.69,2.69,0,0,1,35.13,37H30.64v-1.8h4.49a.9.9,0,0,0,.9-.9V19a.9.9,0,0,0-.9-.9H30.64v-1.8ZM2.74,23.39a.94.94,0,0,1-.94-.9V11.71A6.3,6.3,0,0,1,8.12,5.43a7.52,7.52,0,0,1,.82.05A.9.9,0,0,0,9.84,5,6.26,6.26,0,0,1,20,3.92a.89.89,0,0,0,1.15.16,2.59,2.59,0,0,1,1.39-.4,2.69,2.69,0,0,1,2.54,1.81.92.92,0,0,0,.57.55.87.87,0,0,0,.78-.11,2.73,2.73,0,0,1,2.11-.38,2.67,2.67,0,0,1,2,2,2.76,2.76,0,0,1-4.1,3,.89.89,0,0,0-1.3.8v7.58a.9.9,0,0,1-1.8,0V15.26a4.57,4.57,0,0,0-.65-2.72c-.76-1.11-2.18-1.67-4.2-1.67a2.09,2.09,0,0,0-1.51.64,3.6,3.6,0,0,1-5.1.06,2.47,2.47,0,0,0-1.74-.7,1.81,1.81,0,0,0-1.61,1,4.43,4.43,0,0,1-4,2.52.91.91,0,0,0-.89.9v7.14A1,1,0,0,1,2.74,23.39Z"/></g></g></svg>