<svg xmlns="http://www.w3.org/2000/svg" viewBox="0 0 43.19 30.71"><defs><style>.cls-1{fill:#62a594;}</style></defs><title>Asset 14</title><g id="Layer_2" data-name="Layer 2"><g id="Layer_1-2" data-name="Layer 1"><path class="cls-1" d="M35,23.71a.7.7,0,0,1-.48-.19l-8-7.51a.71.71,0,0,1,0-1,.69.69,0,0,1,1,0l8,7.51a.69.69,0,0,1-.48,1.2Z"/><path class="cls-1" d="M8.22,23.71a.69.69,0,0,1-.48-1.2l8-7.51a.69.69,0,0,1,1,0,.7.7,0,0,1,0,1l-8,7.51a.7.7,0,0,1-.48.19Z"/><path class="cls-1" d="M39.71,30.71H3.48A3.48,3.48,0,0,1,0,27.22V3.48A3.49,3.49,0,0,1,3.48,0H39.71a3.49,3.49,0,0,1,3.48,3.48V27.22a3.48,3.48,0,0,1-3.48,3.49ZM3.48,1.39A2.1,2.1,0,0,0,1.39,3.48V27.22a2.09,2.09,0,0,0,2.09,2.09H39.71a2.08,2.08,0,0,0,2.09-2.09V3.48a2.09,2.09,0,0,0-2.09-2.09Z"/><path class="cls-1" d="M21.6,18.85A3.85,3.85,0,0,1,19,17.93L1.16,2.33a.69.69,0,0,1-.07-1,.7.7,0,0,1,1-.07L20,16.88a2.63,2.63,0,0,0,3.29,0L41.09,1.31a.71.71,0,0,1,1,.06.69.69,0,0,1-.07,1L24.16,17.93a3.89,3.89,0,0,1-2.56.92Z"/></g></g></svg>