<svg xmlns="http://www.w3.org/2000/svg" viewBox="0 0 46 49.11"><defs><style>.cls-1{fill:#6994ff;}</style></defs><title>Asset 20</title><g id="Layer_2" data-name="Layer 2"><g id="Layer_1-2" data-name="Layer 1"><path class="cls-1" d="M37.19,0V3h3.39L34,9.28a12.87,12.87,0,0,0-20.5,2.78h-.57a12.89,12.89,0,0,0-1.5,25.69v4H6.89v3h4.5v4.36h3V44.75h4.69v-3H14.4v-4a12.91,12.91,0,0,0,9.78-6.58l.57,0A12.89,12.89,0,0,0,35.81,11.67L43,4.86V8.59h3V0ZM22.33,27.87a9.91,9.91,0,0,1-7.47-9.59,9.81,9.81,0,0,1,.45-2.93,9.91,9.91,0,0,1,7.47,9.59A9.81,9.81,0,0,1,22.33,27.87Zm-9.44,7a9.89,9.89,0,0,1-.63-19.75A12.91,12.91,0,0,0,21,30.61,9.88,9.88,0,0,1,12.89,34.83Zm12.49-6.68a13.07,13.07,0,0,0,.4-3.21,12.91,12.91,0,0,0-9.12-12.33,9.88,9.88,0,1,1,8.72,15.54Z"/></g></g></svg>