<svg xmlns="http://www.w3.org/2000/svg" viewBox="0 0 56.58 51.88"><defs><style>.cls-1{}</style></defs><title>Asset 7</title><g id="Layer_2" data-name="Layer 2"><g id="Layer_1-2" data-name="Layer 1"><path class="cls-1" d="M39.65,0A16.8,16.8,0,0,0,28.29,4.37,16.94,16.94,0,0,0,5,5a16.95,16.95,0,0,0,0,24l22.71,22.7a.85.85,0,0,0,.62.26.88.88,0,0,0,.63-.26l22.7-22.7a16.95,16.95,0,0,0,0-24,16.82,16.82,0,0,0-12-5ZM50.37,27.67,28.29,49.75,6.21,27.67A15.17,15.17,0,0,1,27.67,6.21a.88.88,0,0,0,1.25,0A15.17,15.17,0,1,1,50.37,27.67Z"/><path class="cls-1" d="M38.74,14.08a.92.92,0,0,0-.23-.25,14.09,14.09,0,0,0-20.44,0,.92.92,0,0,0-.23.25,14.08,14.08,0,0,0,0,19.05,1.29,1.29,0,0,0,.16.17,14.08,14.08,0,0,0,20.51,0,1.29,1.29,0,0,0,.16-.17,14.07,14.07,0,0,0,0-19.05Zm-1,17.48a8.81,8.81,0,0,1-3.37-2.81.88.88,0,0,0-.87-1.52,8.6,8.6,0,0,1-.74-2.77.87.87,0,0,0,0-1.74A8.59,8.59,0,0,1,33.49,20a.86.86,0,0,0,.41.1.88.88,0,0,0,.47-1.62,8.75,8.75,0,0,1,3.37-2.82,12.32,12.32,0,0,1,0,16ZM18.84,15.61a8.7,8.7,0,0,1,3.38,2.82.87.87,0,0,0-.3,1.18.9.9,0,0,0,.77.44.79.79,0,0,0,.4-.1,8.88,8.88,0,0,1,.74,2.76.89.89,0,0,0-.84.88.87.87,0,0,0,.83.87,8.59,8.59,0,0,1-.73,2.77.88.88,0,0,0-.88,1.52,8.74,8.74,0,0,1-3.37,2.81,12.32,12.32,0,0,1,0-15.95Zm1.3,17.27a10.6,10.6,0,0,0,3.61-3.23h0a.86.86,0,0,0,.44.12.89.89,0,0,0,.44-1.65l0,0a10.42,10.42,0,0,0,1-3.57h0a1,1,0,0,0,.88-.95,1.3,1.3,0,0,0-.88-1.1h0a10.56,10.56,0,0,0-1-3.42l0,0A.88.88,0,0,0,25,17.84a.89.89,0,0,0-1.21-.32h0a10.77,10.77,0,0,0-3.62-3.24,12.32,12.32,0,0,1,16.3,0,10.73,10.73,0,0,0-3.61,3.24h0a.89.89,0,0,0-.89,1.53l0,0a10.59,10.59,0,0,0-1,3.42h0a1.32,1.32,0,0,0-.88,1.1,1,1,0,0,0,.88.95h0a10.65,10.65,0,0,0,1,3.57l0,0a.89.89,0,0,0,.89,1.53h0a10.6,10.6,0,0,0,3.61,3.23,12.32,12.32,0,0,1-16.3,0Z"/></g></g></svg>