<svg xmlns="http://www.w3.org/2000/svg" viewBox="0 0 49.94 42.51"><defs><style>.cls-1{fill:#f15a24;}</style></defs><title>Asset 2</title><g id="Layer_2" data-name="Layer 2"><g id="Layer_1-2" data-name="Layer 1"><path class="cls-1" d="M48.48,5.31h-14V4.25A4.3,4.3,0,0,0,30.14,0H18.89a4.3,4.3,0,0,0-4.36,4.25V5.31H1.46A1.46,1.46,0,0,0,0,6.74V38.26a4.3,4.3,0,0,0,4.36,4.25H45.58a4.3,4.3,0,0,0,4.36-4.25V6.77a1.42,1.42,0,0,0-1.46-1.46ZM18.7,3.54H30.33A1.44,1.44,0,0,1,31.78,5V6.2H17.25V5A1.44,1.44,0,0,1,18.7,3.54ZM45.84,8.86l-4.51,13.2A1.45,1.45,0,0,1,40,23H31.78V21.79a1.43,1.43,0,0,0-1.45-1.42H18.7a1.43,1.43,0,0,0-1.45,1.42V23H9.08a1.45,1.45,0,0,1-1.38-1L3.19,8.86ZM29.06,23v2.65H20V23ZM46.31,39.36a.5.5,0,0,1-.51.49H3.23a.5.5,0,0,1-.51-.49V16l3,8.68a1.49,1.49,0,0,0,1.43,1H17.25v1.24a1.43,1.43,0,0,0,1.45,1.42H30.33a1.43,1.43,0,0,0,1.45-1.42V25.68H41.92a1.49,1.49,0,0,0,1.43-1l3-8.68Z"/></g></g></svg>