<svg xmlns="http://www.w3.org/2000/svg" viewBox="0 0 26.44 22.51"><defs><style>.cls-1{fill:#fff;}</style></defs><title>Asset 11</title><g id="Layer_2" data-name="Layer 2"><g id="Layer_1-2" data-name="Layer 1"><path class="cls-1" d="M25.67,2.81h-7.4V2.25A2.28,2.28,0,0,0,16,0H10A2.29,2.29,0,0,0,7.69,2.25v.56H.77A.77.77,0,0,0,0,3.57V20.26a2.28,2.28,0,0,0,2.31,2.25H24.14a2.28,2.28,0,0,0,2.3-2.25V3.58a.75.75,0,0,0-.77-.77ZM9.9,1.88h6.16a.76.76,0,0,1,.77.75v.65H9.14V2.63A.75.75,0,0,1,9.9,1.88ZM24.27,4.69l-2.38,7a.77.77,0,0,1-.73.51H16.83v-.65a.76.76,0,0,0-.77-.75H9.9a.75.75,0,0,0-.76.75v.65H4.81a.76.76,0,0,1-.73-.51l-2.39-7Zm-8.88,7.5V13.6H10.58V12.19Zm9.13,8.65a.26.26,0,0,1-.27.26H1.71a.26.26,0,0,1-.27-.26V8.47L3,13.06a.79.79,0,0,0,.76.54H9.14v.66A.76.76,0,0,0,9.9,15h6.16a.77.77,0,0,0,.77-.75V13.6H22.2a.81.81,0,0,0,.76-.54l1.56-4.59Z"/></g></g></svg>