<svg xmlns="http://www.w3.org/2000/svg" viewBox="0 0 15.37 37.65"><defs><style>.cls-1{fill:#fff;}</style></defs><title>Asset 6</title><g id="Layer_2" data-name="Layer 2"><g id="Layer_1-2" data-name="Layer 1"><path class="cls-1" d="M8.23,0A3.12,3.12,0,1,1,4.66,2.62,3.1,3.1,0,0,1,8.23,0Z"/><path class="cls-1" d="M5.22,18,8.88,7.39H3.7S.09,8.81,0,10.76v11a1.63,1.63,0,0,0,1.59,1.5c.83,0,1.77-1.5,1.77-1.5v-11s.05-.55.48-.55V18Z"/><path class="cls-1" d="M15.37,10.93a3.52,3.52,0,0,0-3.46-3.54h-.67L9.29,18H12V10.22a5.9,5.9,0,0,1,.48.55V21.94a1.52,1.52,0,0,0,1.18,1.51A1.46,1.46,0,0,0,15.37,22v-11Z"/><path class="cls-1" d="M8.16,35.85a1.93,1.93,0,0,0,2.75,1.64,1.82,1.82,0,0,0,1.1-1.7V24.2H8.16Z"/><path class="cls-1" d="M3.84,35.85A1.94,1.94,0,0,0,6.6,37.49,1.81,1.81,0,0,0,7.68,35.8V24.2H3.84Z"/></g></g></svg>