<svg xmlns="http://www.w3.org/2000/svg" xmlns:xlink="http://www.w3.org/1999/xlink" viewBox="0 0 43.94 44"><defs><style>.cls-1{fill:none;}.cls-2{clip-path:url(#clip-path);}.cls-3{fill:#6c9baa;}.cls-4{fill:#87afb9;}.cls-5{fill:#a5c8cd;}.cls-6{fill:#fff;}.cls-7{fill:#f2c41b;}.cls-8{fill:#853c26;}.cls-9{fill:#a85b38;}.cls-10{fill:#55696e;}.cls-11{fill:#748488;}.cls-12{fill:#ffda52;}.cls-13{fill:#ba6746;}</style><clipPath id="clip-path" transform="translate(-0.03)"><rect class="cls-1" width="44" height="44"/></clipPath></defs><title>Asset 5</title><g id="Layer_2" data-name="Layer 2"><g id="Layer_1-2" data-name="Layer 1"><g class="cls-2"><path class="cls-3" d="M39.06,14.91,37.94,9.13H33.67l3.22,6.26a.74.74,0,0,0,.66.4h.78a.74.74,0,0,0,.73-.88Z" transform="translate(-0.03)"/><path class="cls-4" d="M42.87,7.05l-.31-.46a4.37,4.37,0,0,0-2.69-.67l-9.48.78-.21-.59a1.41,1.41,0,0,0-1.32-.92H26.38a.78.78,0,0,0-.72,1.07l.77,1.87a2.63,2.63,0,0,0,2.23,1.63l11.21.91a4.29,4.29,0,0,0,3.2-1.05l.5-.43a1.19,1.19,0,0,0,.09-1.69Z" transform="translate(-0.03)"/></g><path class="cls-5" d="M34.5.47A.86.86,0,0,0,33.73,0h-1a.86.86,0,0,0-.85,1l1.32,6.79a.46.46,0,0,0,.45.37h4.12a.46.46,0,0,0,.4-.67Z" transform="translate(-0.03)"/><path class="cls-6" d="M43.57,7.41,43.07,7a4.82,4.82,0,0,0-.51-.38H41.48a.46.46,0,0,0-.45.46.45.45,0,0,0,.45.45h2.18l-.09-.09Z" transform="translate(-0.03)"/><path class="cls-7" d="M16.47,13.42a1.78,1.78,0,0,0-1.9-1.64l-4.09.28-.32,1.73.63,1.78,4-.25a1.78,1.78,0,0,0,1.65-1.9Z" transform="translate(-0.03)"/><path class="cls-8" d="M9,24.47l-2.6-.56a1,1,0,0,1-.78-1.2l.23-1.08A1,1,0,0,1,7,20.85l2.6.56a1,1,0,0,1,.78,1.2l-.23,1.08A1,1,0,0,1,9,24.47ZM6.58,22.9l2.57.55.23-1-2.57-.55Z" transform="translate(-0.03)"/><path class="cls-8" d="M3.9,31.46l-1.4-.3a.44.44,0,0,0-.54.35l-.09.38a.47.47,0,0,0,.35.55l1.4.3a.47.47,0,0,0,.55-.35L4.25,32a.45.45,0,0,0-.35-.54Z" transform="translate(-0.03)"/><path class="cls-8" d="M9.5,32.66l-1.4-.3a.44.44,0,0,0-.54.35l-.09.38a.47.47,0,0,0,.36.55l1.4.3a.46.46,0,0,0,.54-.36l.08-.38a.45.45,0,0,0-.35-.54Z" transform="translate(-0.03)"/><g class="cls-2"><path class="cls-9" d="M12,24,3.76,22.23A1.45,1.45,0,0,0,2,23.34L.66,29.76a1.45,1.45,0,0,0,1.11,1.72L10,33.25a1.45,1.45,0,0,0,1.72-1.12l1.38-6.41A1.45,1.45,0,0,0,12,24Z" transform="translate(-0.03)"/><path class="cls-10" d="M19.65,44a2.13,2.13,0,0,1-1.94-2.3L18.44,33l-2.91-7.74a2.13,2.13,0,0,1,4-1.5L22.59,32a2,2,0,0,1,.13.93L22,42.05A2.13,2.13,0,0,1,19.65,44Z" transform="translate(-0.03)"/><path class="cls-11" d="M8.17,33.34,1.33,30.48A2.13,2.13,0,0,1,3,26.55l5.15,2.17,3.12-5.11a2.13,2.13,0,0,1,3.63,2.22l-4.07,6.66a2.12,2.12,0,0,1-2.64.85Z" transform="translate(-0.03)"/></g><path class="cls-12" d="M20.34,11.77l-3.66-.88a2.63,2.63,0,0,0-3.17,1.93l-3.18,12.3,5.52,1.54a3.46,3.46,0,0,0,4.29-2.55l2.14-9.17a2.63,2.63,0,0,0-1.94-3.17Z" transform="translate(-0.03)"/><path class="cls-13" d="M23.72,6.06a3.66,3.66,0,1,1-4.11-3.14,3.66,3.66,0,0,1,4.11,3.14Z" transform="translate(-0.03)"/><path class="cls-13" d="M29.61,15.51a1.78,1.78,0,0,0-2.42-.69l-4.54,2.53-1.09-1.47-2,.49-.86,1.69,2,2.67a1.77,1.77,0,0,0,2.29.49l5.91-3.29a1.78,1.78,0,0,0,.69-2.42Z" transform="translate(-0.03)"/><path class="cls-7" d="M18.74,18.06l2.82-2.18-2.33-3.13a1.78,1.78,0,1,0-2.86,2.12Z" transform="translate(-0.03)"/><path class="cls-13" d="M8.34,22.7A1.77,1.77,0,0,1,6.57,21l-.14-7A1.77,1.77,0,0,1,8.07,12.2L10.48,12l.31,3.52-.79.06.11,5.28a1.77,1.77,0,0,1-1.74,1.8Z" transform="translate(-0.03)"/></g></g></svg>