<svg xmlns="http://www.w3.org/2000/svg" viewBox="0 0 22.11 31.29"><defs><style>.cls-1{fill:#fff;}</style></defs><title>Asset 8</title><g id="Layer_2" data-name="Layer 2"><g id="Layer_1-2" data-name="Layer 1"><path class="cls-1" d="M11.05,0a11,11,0,0,0-9.4,16.79l8.77,14.07a.93.93,0,0,0,.79.43h0a.93.93,0,0,0,.79-.44l8.55-14.21A11,11,0,0,0,11.05,0ZM19,15.93,11.19,28.85l-8-12.79a9.2,9.2,0,1,1,17.05-4.82A9.1,9.1,0,0,1,19,15.93Z"/><path class="cls-1" d="M11.05,5.73a5.51,5.51,0,1,0,5.53,5.51A5.52,5.52,0,0,0,11.05,5.73Zm0,9.19a3.68,3.68,0,1,1,3.69-3.68A3.69,3.69,0,0,1,11.05,14.92Z"/></g></g></svg>