<svg xmlns="http://www.w3.org/2000/svg" viewBox="0 0 69.11 46"><defs><style>.cls-1{fill:#f0f2f4;}.cls-2{fill:#ff9750;}.cls-3{fill:#fd4a4a;}</style></defs><title>Asset 3</title><g id="Layer_2" data-name="Layer 2"><g id="Layer_1-2" data-name="Layer 1"><path class="cls-1" d="M17.19,35.29H58.05c1.55,0,2.81,2.11,2.81,4.68h0c0,2.57-1.26,4.68-2.81,4.68H17.19Z"/><rect class="cls-2" x="1.35" y="35.29" width="15.84" height="9.36"/><path class="cls-3" d="M58.05,35.29c1.55,0,2.81,2.11,2.81,4.68h0c0,2.57-1.26,4.68-2.81,4.68s-2.8-2.11-2.8-4.68h0C55.25,37.4,56.51,35.29,58.05,35.29Z"/><path d="M58.05,33.94H1.35A1.34,1.34,0,0,0,0,35.29v9.36A1.35,1.35,0,0,0,1.35,46H22.79a1.35,1.35,0,0,0,0-2.7H18.54V36.64h36a8.49,8.49,0,0,0,0,6.66H33.76a1.35,1.35,0,0,0,0,2.7H58.05c2.33,0,4.16-2.65,4.16-6S60.38,33.94,58.05,33.94ZM2.7,36.64H15.84V43.3H2.7ZM58.05,43.3C57.54,43.3,56.6,42,56.6,40s.94-3.33,1.45-3.33S59.51,37.9,59.51,40,58.57,43.3,58.05,43.3Z"/><path d="M62.75,9.61H54.62A3.66,3.66,0,0,1,51,6a1.35,1.35,0,1,0-2.7,0A6.33,6.33,0,0,0,49.73,10H43.92a3.66,3.66,0,1,1,0-7.31,1.35,1.35,0,1,0,0-2.7,6.36,6.36,0,1,0,0,12.71h6.22a3.65,3.65,0,0,1,1.63,6.92A6.54,6.54,0,0,0,49,31.92a1.4,1.4,0,0,0,.65.17,1.35,1.35,0,0,0,.64-2.54,3.85,3.85,0,0,1,1.83-7.23h0a1.24,1.24,0,0,0,.27,0l.26-.08A6.35,6.35,0,0,0,55,12.31h7.72a3.66,3.66,0,1,1,0,7.31H60.06a6.55,6.55,0,0,0-6.55,6.55v5.2a1.35,1.35,0,0,0,2.7,0v-5.2a3.85,3.85,0,0,1,3.85-3.85h2.69a6.36,6.36,0,1,0,0-12.71Z"/><path d="M49,3.58a1.45,1.45,0,1,0-1.46-1.45A1.46,1.46,0,0,0,49,3.58Z"/><path d="M26.77,43.3h-.06a1.35,1.35,0,0,0,0,2.7h.06a1.35,1.35,0,0,0,0-2.7Z"/></g></g></svg>