<svg xmlns="http://www.w3.org/2000/svg" viewBox="0 0 37.56 37.56"><title>Asset 7</title><g id="Layer_2" data-name="Layer 2"><g id="Layer_1-2" data-name="Layer 1"><path d="M18.78,0A18.78,18.78,0,1,0,37.56,18.78,18.78,18.78,0,0,0,18.78,0Zm0,35.35A16.57,16.57,0,1,1,35.35,18.78,16.57,16.57,0,0,1,18.78,35.35Z"/><path d="M19.88,15.67V8.84H17.67v6.83a3.3,3.3,0,0,0-2,2H11.05v2.21h4.62a3.3,3.3,0,1,0,4.21-4.21Zm-1.1,4.21a1.11,1.11,0,1,1,1.1-1.1,1.11,1.11,0,0,1-1.1,1.1Z"/><rect x="4.42" y="17.67" width="2.21" height="2.21"/><rect x="17.67" y="30.93" width="2.21" height="2.21"/><rect x="30.93" y="17.67" width="2.21" height="2.21"/><rect x="17.67" y="4.42" width="2.21" height="2.21"/></g></g></svg>